:FULLY-SPECIFIED
:FORCE-ALL-JOINTS-BE-3DOF
:DEGREES
408
root 7.53894 13.7438 -34.059 159.291 75.1725 153.077
lfemur 18.6113 -2.67075 -10.2855
ltibia 23.8469 -0 0
lfoot -23.3539 33.1783 3.73339e-05
ltoes -26.6998 0 0
rfemur -66.31 -16.3629 8.29613
rtibia 79.285 -0 0
rfoot -14.2298 13.2219 0.000313638
rtoes 10.1413 -0 0
lowerback 8.42414 4.89324 -11.6958
upperback -2.56676 5.1752 -1.181
thorax -8.46663 3.09141 4.41077
lowerneck 0.55189 -11.6392 -11.3632
upperneck 3.21327 -15.8213 9.26844
head 2.50316 -7.91035 4.02226
lclavicle 0 0 0
lhumerus -70.2191 -19.9715 106.459
lradius 100.281 -0 0
lwrist 51.1002 0 0
lhand -9.88057 42.9155 2.34034e-05
lfingers 0 0 0
lthumb 16.0987 72.2666 -2.57903e-05
rclavicle 0 0 0
rhumerus 49.2405 -3.84918 -59.5408
rradius 19.9681 -0 0
rwrist 18.4189 0 0
rhand -21.6937 -33.1523 0.000136136
rfingers 0 0 0
rthumb 4.7045 -63.0801 0.000134678
409
root 7.53943 13.7439 -34.061 159.294 75.1798 153.078
lfemur 18.6385 -2.6588 -10.2829
ltibia 23.8174 -0 0
lfoot -23.3572 33.1733 1.69667e-05
ltoes -26.7337 0 0
rfemur -66.3163 -16.373 8.30298
rtibia 79.3056 -0 0
rfoot -14.2483 13.2143 0.000142535
rtoes 10.1506 -0 0
lowerback 8.41591 4.89178 -11.695
upperback -2.56943 5.17451 -1.17812
thorax -8.46489 3.09116 4.41407
lowerneck 0.553034 -11.6368 -11.3656
upperneck 3.2174 -15.8183 9.26719
head 2.50399 -7.90895 4.02237
lclavicle 0 0 0
lhumerus -70.2198 -19.9621 106.459
lradius 100.28 -0 0
lwrist 51.0986 0 0
lhand -9.86285 42.9161 1.06358e-05
lfingers 0 0 0
lthumb 16.1158 72.266 -1.17206e-05
rclavicle 0 0 0
rhumerus 49.2347 -3.83353 -59.5289
rradius 19.9725 -0 0
rwrist 18.3889 0 0
rhand -21.6848 -33.1455 6.1868e-05
rfingers 0 0 0
rthumb 4.71316 -63.0731 6.12052e-05
410
root 7.53968 13.744 -34.0623 159.296 75.1843 153.078
lfemur 18.6551 -2.65147 -10.2813
ltibia 23.7993 -0 0
lfoot -23.3592 33.1702 4.32427e-06
ltoes -26.7544 0 0
rfemur -66.3201 -16.3792 8.30718
rtibia 79.3182 -0 0
rfoot -14.2597 13.2097 3.63277e-05
rtoes 10.1563 -0 0
lowerback 8.41086 4.89088 -11.6945
upperback -2.57106 5.17408 -1.17635
thorax -8.46382 3.091 4.41609
lowerneck 0.553736 -11.6354 -11.367
upperneck 3.21994 -15.8165 9.26643
head 2.50451 -7.90809 4.02244
lclavicle 0 0 0
lhumerus -70.2203 -19.9564 106.459
lradius 100.279 -0 0
lwrist 51.0976 0 0
lhand -9.85197 42.9165 2.71074e-06
lfingers 0 0 0
lthumb 16.1262 72.2655 -2.98721e-06
rclavicle 0 0 0
rhumerus 49.2311 -3.82393 -59.5215
rradius 19.9752 -0 0
rwrist 18.3705 0 0
rhand -21.6793 -33.1413 1.57682e-05
rfingers 0 0 0
rthumb 4.71846 -63.0689 1.55993e-05
411
root 7.1863 13.7847 -34.2571 159.297 75.1858 153.078
lfemur 18.6608 -2.64898 -10.2808
ltibia 23.7931 0 0
lfoot -23.3599 33.1691 0
ltoes -26.7615 0 0
rfemur -66.3214 -16.3813 8.30861
rtibia 79.3225 0 0
rfoot -14.2636 13.2081 0
rtoes 10.1582 0 0
lowerback 8.40914 4.89058 -11.6943
upperback -2.57162 5.17394 -1.17575
thorax -8.46346 3.09095 4.41678
lowerneck 0.553975 -11.6349 -11.3675
upperneck 3.2208 -15.8159 9.26617
head 2.50468 -7.9078 4.02246
lclavicle -4.1869e-14 -3.57812e-15 0
lhumerus -70.2204 -19.9544 106.459
lradius 100.279 0 0
lwrist 51.0973 0 0
lhand -9.84827 42.9166 0
lfingers 7.12502 0 0
lthumb 16.1298 72.2654 0
rclavicle -4.1869e-14 -3.57812e-15 0
rhumerus 49.2299 -3.82067 -59.519
rradius 19.9761 0 0
rwrist 18.3642 0 0
rhand -21.6774 -33.1399 0
rfingers 7.12502 0 0
rthumb 4.72027 -63.0674 0
412
root 7.16026 13.7878 -34.2702 159.693 75.1889 153.536
lfemur 18.2809 -2.80666 -10.2734
ltibia 24.4091 -0 0
lfoot -23.3484 33.0652 -0.0007701
ltoes -26.7507 0 0
rfemur -66.1555 -16.2493 8.24792
rtibia 79.0065 -0 0
rfoot -14.0636 13.1271 -0.0105015
rtoes 9.91865 -0 0
lowerback 8.50299 4.85883 -11.6169
upperback -2.53296 5.1336 -1.12847
thorax -8.4661 3.06746 4.43052
lowerneck 0.597107 -11.6605 -11.3794
upperneck 3.17263 -15.8554 9.33462
head 2.49505 -7.92793 4.04614
lclavicle 0 0 0
lhumerus -70.0821 -20.2457 106.443
lradius 100.285 -0 0
lwrist 51.0188 0 0
lhand -9.8127 42.9105 -0.000139881
lfingers 0 0 0
lthumb 16.164 72.2563 -0.000201454
rclavicle 0 0 0
rhumerus 49.0123 -3.78943 -59.2694
rradius 20.4804 -0 0
rwrist 17.6444 0 0
rhand -21.4616 -33.282 -0.019948
rfingers 0 0 0
rthumb 4.92841 -63.1967 -0.0174809
413
root 7.1339 13.7912 -34.281 160.156 75.1915 154.071
lfemur 17.837 -2.99082 -10.2634
ltibia 25.1287 -0 0
lfoot -23.335 32.9439 -0.00164342
ltoes -26.738 0 0
rfemur -65.962 -16.095 8.17757
rtibia 78.6374 -0 0
rfoot -13.8299 13.0325 -0.0224123
rtoes 9.63879 -0 0
lowerback 8.61258 4.82158 -11.5266
upperback -2.48783 5.08643 -1.07327
thorax -8.4692 3.04003 4.44657
lowerneck 0.647511 -11.6904 -11.3933
upperneck 3.11627 -15.9015 9.41465
head 2.48379 -7.95144 4.0738
lclavicle 0 0 0
lhumerus -69.9202 -20.5859 106.424
lradius 100.293 -0 0
lwrist 50.9271 0 0
lhand -9.77115 42.9034 -0.000298506
lfingers 0 0 0
lthumb 16.204 72.2456 -0.000429901
rclavicle 0 0 0
rhumerus 48.7582 -3.75174 -58.978
rradius 21.0695 -0 0
rwrist 16.8034 0 0
rhand -21.2093 -33.4481 -0.0425747
rfingers 0 0 0
rthumb 5.17162 -63.3478 -0.0373087
414
root 7.10726 13.7949 -34.2897 160.683 75.1931 154.679
lfemur 17.3327 -3.19986 -10.2502
ltibia 25.946 -0 0
lfoot -23.3197 32.8061 -0.00260076
ltoes -26.7236 0 0
rfemur -65.7427 -15.9194 8.0984
rtibia 78.2181 -0 0
rfoot -13.5644 12.925 -0.035471
rtoes 9.32096 -0 0
lowerback 8.73695 4.77907 -11.424
upperback -2.43664 5.03281 -1.01062
thorax -8.47272 3.00887 4.4648
lowerneck 0.704768 -11.7244 -11.4091
upperneck 3.05218 -15.9537 9.50562
head 2.47099 -7.97814 4.10523
lclavicle 0 0 0
lhumerus -69.7356 -20.9722 106.401
lradius 100.301 -0 0
lwrist 50.8229 0 0
lhand -9.72397 42.8953 -0.000472382
lfingers 0 0 0
lthumb 16.2494 72.2335 -0.000680315
rclavicle 0 0 0
rhumerus 48.4699 -3.70737 -58.6473
rradius 21.7386 -0 0
rwrist 15.8483 0 0
rhand -20.9228 -33.6369 -0.0673844
rfingers 0 0 0
rthumb 5.4479 -63.5195 -0.0590488
415
root 7.08039 13.7989 -34.2963 161.268 75.1932 155.356
lfemur 16.7717 -3.43219 -10.2335
ltibia 26.855 -0 0
lfoot -23.3028 32.6529 -0.00362234
ltoes -26.7076 0 0
rfemur -65.4993 -15.7237 8.01126
rtibia 77.7519 -0 0
rfoot -13.2692 12.8053 -0.0494085
rtoes 8.96749 -0 0
lowerback 8.87518 4.73153 -11.3102
upperback -2.37979 4.97312 -0.941023
thorax -8.47665 2.97422 4.48508
lowerneck 0.768465 -11.7621 -11.4268
upperneck 2.98077 -16.0117 9.60689
head 2.45673 -8.00782 4.1402
lclavicle 0 0 0
lhumerus -69.5297 -21.4018 106.374
lradius 100.31 -0 0
lwrist 50.7071 0 0
lhand -9.67149 42.8863 -0.000657919
lfingers 0 0 0
lthumb 16.2999 72.22 -0.000947521
rclavicle 0 0 0
rhumerus 48.1496 -3.65607 -58.2797
rradius 22.4826 -0 0
rwrist 14.7862 0 0
rhand -20.6041 -33.847 -0.0938663
rfingers 0 0 0
rthumb 5.75523 -63.7105 -0.0822535
